<svg xmlns="http://www.w3.org/2000/svg" width="256" height="256" viewBox="0 0 100 100"><path fill="#ffffff" d="M31.98 60.69L31.98 60.69Q31.46 61.06 30.61 61.36Q29.76 61.66 28.72 61.66L28.72 61.66Q27.54 61.66 26.62 61.29Q25.69 60.92 25.32 60.10L25.32 60.10Q21.32 51.81 18.44 44.93Q15.55 38.05 13.78 33.54L13.78 33.54L13.48 33.54Q13.26 39.09 13 43.86Q12.74 48.63 12.45 53.18Q12.15 57.73 11.85 62.40Q11.56 67.06 11.26 72.39L11.26 72.39Q10.82 72.53 10.11 72.68Q9.41 72.83 8.60 72.83L8.60 72.83Q6.97 72.83 6.30 72.16Q5.64 71.50 5.64 70.24L5.64 70.24Q5.64 69.50 5.75 67.06Q5.86 64.62 6.08 61.14Q6.30 57.66 6.56 53.44Q6.82 49.22 7.15 44.86Q7.49 40.49 7.82 36.27Q8.15 32.06 8.45 28.58L8.45 28.58Q9.04 28.06 10.15 27.62Q11.26 27.17 12.67 27.17L12.67 27.17Q16.07 27.17 17.40 29.91L17.40 29.91Q18.81 32.80 20.25 36.01Q21.70 39.23 23.14 42.56Q24.58 45.89 25.95 49.15Q27.32 52.41 28.58 55.37L28.58 55.37L28.87 55.37Q30.50 51.44 32.13 47.63Q33.76 43.82 35.31 40.27Q36.86 36.72 38.27 33.61Q39.68 30.50 40.79 27.91L40.79 27.91Q41.45 27.54 42.49 27.36Q43.52 27.17 44.41 27.17L44.41 27.17Q47.89 27.17 48.41 29.54L48.41 29.54Q48.70 30.87 49.08 33.94Q49.44 37.01 49.81 41.01Q50.19 45.01 50.52 49.59Q50.85 54.18 51.15 58.44Q51.44 62.69 51.66 66.28Q51.89 69.87 52.03 71.94L52.03 71.94Q50.70 72.83 48.93 72.83L48.93 72.83Q47.82 72.83 46.97 72.27Q46.11 71.72 45.97 70.24L45.97 70.24Q45.60 64.84 45.30 59.51Q45.00 54.18 44.75 49.37Q44.49 44.56 44.27 40.53Q44.04 36.50 43.89 33.68L43.89 33.68L43.60 33.68Q42.78 35.76 41.71 38.35Q40.64 40.94 39.20 44.19Q37.75 47.45 35.98 51.55Q34.20 55.66 31.98 60.69ZM92.07 32.50L79.86 32.50L79.86 72.24Q79.49 72.39 78.71 72.57Q77.94 72.76 77.12 72.76L77.12 72.76Q73.86 72.76 73.86 70.02L73.86 70.02L73.86 32.50L60.03 32.50Q59.80 32.13 59.58 31.50Q59.36 30.87 59.36 30.06L59.36 30.06Q59.36 28.80 59.95 28.10Q60.54 27.39 61.65 27.39L61.65 27.39L93.70 27.39Q93.92 27.76 94.14 28.39Q94.36 29.02 94.36 29.76L94.36 29.76Q94.36 31.02 93.77 31.76Q93.18 32.50 92.07 32.50L92.07 32.50Z"></path></svg>